<svg width="135" height="39" viewBox="0 0 135 39" fill="none" xmlns="http://www.w3.org/2000/svg">
<path d="M71.0611 5.91028C74.6071 5.91028 77.1125 8.51028 77.1125 11.8303C77.1125 13.2303 76.6175 14.4903 75.8295 15.5003L76.6175 16.2303C76.9508 16.5103 76.9812 16.8503 76.6882 17.1903L76.3851 17.5203C76.0921 17.8303 75.7587 17.8603 75.4759 17.5903L74.6374 16.7603C73.6473 17.4903 72.4249 17.9003 71.0611 17.9003C67.5151 17.9003 65.0097 15.2203 65.0097 11.8403C65.0097 8.51028 67.5353 5.91028 71.0611 5.91028ZM71.0611 15.9603C71.7885 15.9603 72.5462 15.7503 73.1018 15.3403L72.2936 14.5703C71.9804 14.2903 71.9501 13.9503 72.2431 13.6203L72.5361 13.3103C72.829 12.9803 73.1624 12.9503 73.4453 13.2303L74.2737 14.0603C74.6879 13.4203 74.9202 12.6403 74.9202 11.8203C74.9202 9.53028 73.2533 7.82028 71.0611 7.82028C68.8486 7.82028 67.2019 9.53028 67.2019 11.8203C67.2019 14.1703 68.8486 15.9603 71.0611 15.9603Z" fill="#F27321"/>
<path d="M78.6885 10.0602C78.6885 9.62024 78.9309 9.37024 79.3856 9.37024H80.0927C80.5574 9.37024 80.7898 9.61024 80.7898 10.0602V14.3002C80.7898 15.3102 81.0525 16.0002 82.093 16.0002C83.6084 16.0002 84.4469 14.6802 84.4469 13.1902V10.0602C84.4469 9.62024 84.6793 9.37024 85.144 9.37024H85.8511C86.2957 9.37024 86.5482 9.61024 86.5482 10.0602V17.0102C86.5482 17.4702 86.3058 17.7002 85.8511 17.7002H85.2046C84.7601 17.7002 84.5277 17.4702 84.5277 17.0102V16.5202C84.5277 16.3202 84.558 16.1402 84.558 16.1402H84.5277C84.1337 16.9902 83.0427 17.8902 81.6081 17.8902C79.8099 17.8902 78.6885 16.9902 78.6885 14.7202V10.0602Z" fill="#F27321"/>
<path d="M88.599 7.28022V6.79022C88.599 6.35022 88.8314 6.10022 89.2759 6.10022H90.0032C90.4478 6.10022 90.7003 6.34022 90.7003 6.79022V7.28022C90.7003 7.72022 90.4579 7.95022 90.0032 7.95022H89.2759C88.8314 7.95022 88.599 7.72022 88.599 7.28022ZM88.599 10.0602C88.599 9.62022 88.8314 9.37022 89.2759 9.37022H90.0032C90.4478 9.37022 90.6801 9.61022 90.6801 10.0602V17.0102C90.6801 17.4702 90.4478 17.7002 90.0032 17.7002H89.2759C88.8314 17.7002 88.599 17.4702 88.599 17.0102V10.0602Z" fill="#F27321"/>
<path d="M96.8022 9.17029C98.156 9.17029 99.0652 9.66029 99.5602 10.0003C99.9037 10.2303 99.9239 10.5703 99.6916 10.9303L99.4794 11.2603C99.2369 11.6403 98.9541 11.6403 98.5601 11.4403C98.2166 11.2103 97.6508 10.9303 96.9235 10.9303C95.3778 10.9303 94.3675 12.0903 94.3675 13.5103C94.3675 14.9103 95.3778 16.1203 96.9942 16.1203C97.8226 16.1203 98.4793 15.7603 98.8733 15.4803C99.2875 15.2503 99.6006 15.3003 99.8128 15.6903L99.9744 16.0003C100.176 16.3603 100.126 16.6903 99.7926 16.9103C99.2774 17.2903 98.257 17.8703 96.8123 17.8703C94.0241 17.8703 92.246 15.9303 92.246 13.5103C92.2258 11.1703 94.014 9.17029 96.8022 9.17029Z" fill="#F27321"/>
<path d="M101.5 6.79022C101.5 6.35022 101.742 6.10022 102.197 6.10022H102.904C103.369 6.10022 103.601 6.34022 103.601 6.79022V12.3102H104.642L106.389 9.83022C106.592 9.50022 106.834 9.37022 107.218 9.37022H108.006C108.572 9.37022 108.743 9.75022 108.43 10.1902L106.339 13.1002V13.1302L108.814 16.8802C109.097 17.3502 108.915 17.7002 108.349 17.7002H107.46C107.076 17.7002 106.834 17.5502 106.652 17.2302L104.692 14.0602H103.601V17.0102C103.601 17.4702 103.369 17.7002 102.904 17.7002H102.197C101.752 17.7002 101.5 17.4702 101.5 17.0102V6.79022Z" fill="#F27321"/>
<path d="M65.2421 23.8002C65.2421 23.3602 65.4744 23.1102 65.9189 23.1102H69.4144C71.5258 23.1102 73.0412 24.1902 73.0412 26.1002C73.0412 27.1802 72.5159 28.1102 71.6268 28.5802V28.6102C72.8998 28.9902 73.5059 30.1602 73.5059 31.3402C73.5059 33.6602 71.647 34.7002 69.4649 34.7002H65.9189C65.4744 34.7002 65.2421 34.4702 65.2421 34.0102V23.8002ZM69.4245 27.8502C70.3438 27.8502 70.859 27.2002 70.859 26.3602C70.859 25.5302 70.364 24.9202 69.374 24.9202H67.3434V27.8402H69.4245V27.8502ZM69.6265 32.8902C70.7176 32.8902 71.3238 32.1902 71.3238 31.2102C71.3238 30.2502 70.6974 29.5502 69.6265 29.5502H67.3535V32.9002H69.6265V32.8902Z" fill="#F27321"/>
<path d="M75.1526 27.0702C75.1526 26.6302 75.3849 26.3802 75.8295 26.3802H76.476C76.9205 26.3802 77.1731 26.6202 77.1731 27.0702V27.8502C77.1731 28.1602 77.1226 28.4202 77.1226 28.4202H77.1529C77.4863 27.4202 78.4056 26.3102 79.5977 26.3102C80.0624 26.3102 80.224 26.5402 80.224 27.0002V27.6402C80.224 28.0802 79.9614 28.3302 79.5169 28.3302C77.9813 28.3302 77.2438 29.8302 77.2438 31.3502V34.0202C77.2438 34.4802 77.0114 34.7102 76.5669 34.7102H75.8396C75.395 34.7102 75.1627 34.4802 75.1627 34.0202V27.0702H75.1526Z" fill="#F27321"/>
<path d="M81.3353 24.2902V23.8002C81.3353 23.3602 81.5677 23.1102 82.0122 23.1102H82.7396C83.1841 23.1102 83.4366 23.3502 83.4366 23.8002V24.2902C83.4366 24.7302 83.1942 24.9602 82.7396 24.9602H82.0122C81.5677 24.9602 81.3353 24.7302 81.3353 24.2902ZM81.3353 27.0702C81.3353 26.6302 81.5677 26.3802 82.0122 26.3802H82.7396C83.1841 26.3802 83.4164 26.6202 83.4164 27.0702V34.0202C83.4164 34.4802 83.1841 34.7102 82.7396 34.7102H82.0122C81.5677 34.7102 81.3353 34.4802 81.3353 34.0202V27.0702Z" fill="#F27321"/>
<path d="M89.5284 26.1902C90.8822 26.1902 91.7914 26.6802 92.2864 27.0202C92.6299 27.2502 92.6501 27.5902 92.4177 27.9502L92.2056 28.2802C91.953 28.6602 91.6803 28.6602 91.2863 28.4602C90.9428 28.2302 90.377 27.9502 89.6497 27.9502C88.104 27.9502 87.0937 29.1102 87.0937 30.5302C87.0937 31.9302 88.104 33.1402 89.7204 33.1402C90.5488 33.1402 91.2054 32.7802 91.5994 32.5002C92.0136 32.2702 92.3268 32.3202 92.539 32.7102L92.7006 33.0202C92.9027 33.3802 92.8522 33.7102 92.5188 33.9302C92.0035 34.3102 90.9832 34.8902 89.5385 34.8902C86.7503 34.8902 84.9722 32.9502 84.9722 30.5302C84.9621 28.1802 86.7401 26.1902 89.5284 26.1902Z" fill="#F27321"/>
<path d="M98.2166 26.1902C100.772 26.1902 102.854 28.0002 102.854 30.5502C102.854 33.1102 100.772 34.9102 98.2166 34.9102C95.6606 34.9102 93.5997 33.1102 93.5997 30.5502C93.5997 28.0002 95.6606 26.1902 98.2166 26.1902ZM98.2166 33.1402C99.5804 33.1402 100.722 32.1002 100.722 30.5402C100.722 29.0102 99.5804 27.9402 98.2166 27.9402C96.8527 27.9402 95.7314 29.0002 95.7314 30.5402C95.7314 32.0902 96.8527 33.1402 98.2166 33.1402Z" fill="#F27321"/>
<path d="M104.369 23.8002C104.369 23.3602 104.601 23.1102 105.046 23.1102H105.773C106.218 23.1102 106.45 23.3502 106.45 23.8002V31.9402C106.45 32.7602 106.794 32.9002 107.107 32.9402C107.4 32.9702 107.622 33.1502 107.622 33.5302V34.0902C107.622 34.5102 107.42 34.7902 106.925 34.7902C105.804 34.7902 104.369 34.5002 104.369 32.1102V23.8002Z" fill="#F27321"/>
<path d="M113.259 29.5603H113.603V29.3603C113.603 28.2703 112.896 27.8903 112.037 27.8903C111.33 27.8903 110.683 28.1503 110.289 28.3603C109.875 28.5403 109.562 28.4703 109.37 28.0803L109.208 27.7703C109.006 27.3903 109.077 27.0703 109.471 26.8603C110.016 26.5803 110.976 26.1703 112.229 26.1703C114.401 26.1703 115.704 27.3803 115.704 29.4803V34.0203C115.704 34.4803 115.472 34.7103 115.007 34.7103H114.451C114.007 34.7103 113.774 34.4803 113.774 34.0203V33.6903C113.774 33.4603 113.805 33.3303 113.805 33.3303H113.774C113.774 33.3303 112.986 34.9003 111.138 34.9003C109.602 34.9003 108.349 33.9203 108.349 32.4003C108.339 29.9703 111.37 29.5603 113.259 29.5603ZM111.683 33.3203C112.855 33.3203 113.613 32.1403 113.613 31.1303V30.8203H113.269C112.219 30.8203 110.42 30.9803 110.42 32.2203C110.42 32.7803 110.845 33.3203 111.683 33.3203Z" fill="#F27321"/>
<path d="M119.21 36.0602C119.604 36.2102 120.129 36.3702 120.907 36.3702C122.19 36.3702 123.281 35.8302 123.281 34.3502V33.7302C123.281 33.5302 123.311 33.3102 123.311 33.3102H123.281C122.816 34.0902 122.089 34.5502 120.967 34.5502C118.512 34.5502 117.159 32.6202 117.159 30.3202C117.159 28.0502 118.442 26.1902 120.947 26.1902C122.907 26.1902 123.432 27.4602 123.432 27.4602H123.463C123.463 27.4602 123.443 27.3802 123.443 27.2502V26.9402C123.443 26.6302 123.675 26.3902 124.119 26.3902H124.675C125.12 26.3902 125.352 26.6302 125.352 27.0802V34.2102C125.352 37.0702 123.079 38.1402 120.998 38.1402C120.058 38.1402 119.119 37.9402 118.543 37.7002C118.118 37.5202 117.997 37.2402 118.179 36.8202L118.31 36.4402C118.512 36.0302 118.765 35.9102 119.21 36.0602ZM123.331 30.3602C123.331 28.4502 122.372 27.9402 121.291 27.9402C119.987 27.9402 119.28 28.8502 119.28 30.2302C119.28 31.7302 120.038 32.7902 121.392 32.7902C122.372 32.8002 123.331 32.2202 123.331 30.3602Z" fill="#F27321"/>
<path d="M131.211 26.1902C133.606 26.1902 134.939 27.8702 134.939 30.1602C134.939 30.5202 134.626 30.8602 134.212 30.8602H129.08C129.211 32.3602 130.332 33.1502 131.605 33.1502C132.383 33.1502 133.02 32.8602 133.424 32.6102C133.838 32.4102 134.131 32.4602 134.343 32.8402L134.545 33.1702C134.747 33.5502 134.676 33.8702 134.313 34.0802C133.767 34.4202 132.777 34.9102 131.464 34.9102C128.676 34.9102 126.948 32.9202 126.948 30.5502C126.938 27.9802 128.686 26.1902 131.211 26.1902ZM132.858 29.6002C132.828 28.4402 132.121 27.7602 131.161 27.7602C130.09 27.7602 129.332 28.4902 129.13 29.6002H132.858Z" fill="#F27321"/>
<path d="M26.9132 0.780273L0.980103 24.1603H5.62725L26.9132 4.97027L48.1991 24.1603H52.8463L26.9132 0.780273Z" fill="#F27321"/>
<path d="M26.6303 9.48022H23.8622V12.2202H26.6303V9.48022Z" fill="#F27321"/>
<path d="M29.9641 9.48022H27.196V12.2202H29.9641V9.48022Z" fill="#F27321"/>
<path d="M26.6303 12.8502H23.8622V15.5902H26.6303V12.8502Z" fill="#F27321"/>
<path d="M29.9641 12.8502H27.196V15.5902H29.9641V12.8502Z" fill="#F27321"/>
<path d="M39.3696 27.2903V27.2303C41.0264 26.3803 42.0366 24.7103 42.0366 22.6203C42.0366 19.1603 39.4302 17.1603 35.7832 17.1603H29.2267C28.5498 17.1603 28.2164 17.4903 28.2164 18.1603V19.9603V27.7403C28.2164 29.2403 27.8224 30.6903 27.1658 31.8903C27.0041 32.1903 26.8223 32.4803 26.6202 32.7503L24.7816 30.9003C24.3472 30.4703 23.8622 30.5303 23.4379 31.0203L23.0439 31.4103C22.6095 31.9003 22.6095 32.3803 23.1046 32.8003L24.9129 34.5903C23.6602 35.6203 21.9125 36.1703 20.195 36.1703C15.659 36.1703 12.2545 32.4703 12.2545 27.7403C12.2545 23.0403 15.659 19.5503 20.195 19.5503C23.2561 19.5503 25.8221 21.1203 27.1759 23.5703V19.0503C25.3069 17.6303 22.9126 16.7903 20.195 16.7903C13.8204 16.7903 9.13281 21.5503 9.13281 27.7403C9.13281 33.9903 13.7598 38.9303 20.195 38.9303C22.8318 38.9303 25.1958 38.1103 27.0647 36.6203L28.2467 37.7903L28.9034 38.4403C28.9438 38.4803 28.9842 38.5203 29.0246 38.5503C29.3681 38.8303 29.7217 38.8103 30.0652 38.5603C30.1359 38.5103 30.2066 38.4503 30.2773 38.3803L30.6713 37.9603C31.0956 37.4703 31.0653 36.9903 30.5804 36.5603L28.8024 34.8103C30.045 33.3203 30.9138 31.4403 31.227 29.3903C31.2674 29.1503 31.2876 28.9003 31.3179 28.6603C31.3381 28.3603 31.3583 28.0603 31.3583 27.7503C31.3583 27.2103 31.328 26.6903 31.2573 26.1703C31.2472 26.1203 31.2472 26.0803 31.2371 26.0303V19.7703H35.7428C37.7936 19.7703 38.9958 21.0503 38.9958 22.9303C38.9958 24.8103 37.7633 26.1803 35.8034 26.1803H32.318C32.3786 26.6903 32.4089 27.2203 32.4089 27.7603C32.4089 28.0603 32.3988 28.3703 32.3786 28.6703H36.1166C38.3896 28.6703 39.8545 30.1603 39.8545 32.3403C39.8545 34.5203 38.4401 35.9803 36.1166 35.9803H31.4694C31.8937 36.4203 32.0149 36.8803 32.0352 37.2003C32.0554 37.5403 31.9846 38.0503 31.5401 38.5903H35.9549C39.7838 38.5903 42.9458 36.5303 42.9458 32.4903C42.9256 30.0803 41.6426 27.9603 39.3696 27.2903Z" fill="#F27321"/>
<path d="M58.9078 6.51025H58.4835V35.9503H58.9078V6.51025Z" fill="#F27321"/>
</svg>
